<?xml version="1.0" standalone="no"?>
<!DOCTYPE svg PUBLIC "-//W3C//DTD SVG 20010904//EN"
 "http://www.w3.org/TR/2001/REC-SVG-20010904/DTD/svg10.dtd">
<svg version="1.0" xmlns="http://www.w3.org/2000/svg"
 width="960.000000pt" height="1280.000000pt" viewBox="0 0 960.000000 1280.000000"
 preserveAspectRatio="xMidYMid meet">

<g transform="translate(0.000000,1280.000000) scale(0.100000,-0.100000)"
fill="#000000" stroke="none">
<path d="M3895 12698 c-26 -14 -102 -95 -120 -128 -38 -68 -39 -70 -27 -82 6
-6 19 -12 29 -13 10 -1 29 -5 42 -9 14 -5 26 -4 30 2 12 20 54 -11 63 -45 5
-18 10 -33 12 -33 3 0 24 8 48 19 32 13 46 15 55 7 30 -28 41 -32 93 -34 30
-1 72 -4 93 -8 24 -4 43 -2 52 6 13 11 19 9 37 -9 14 -15 28 -21 44 -18 16 3
24 0 24 -10 0 -10 5 -11 18 -5 9 5 23 7 30 5 15 -6 16 -39 0 -49 -7 -4 -8 -3
-4 4 4 7 1 12 -8 12 -8 0 -18 -5 -21 -11 -4 -6 -12 -8 -19 -6 -7 3 -22 -6 -35
-19 -13 -13 -27 -24 -32 -24 -6 0 -39 -13 -74 -30 -35 -16 -71 -30 -80 -30 -9
0 -14 -4 -10 -9 3 -5 0 -13 -6 -17 -8 -4 -9 -3 -5 4 5 8 -1 12 -14 12 -14 0
-19 -4 -14 -12 5 -8 2 -9 -11 -5 -18 8 -45 -8 -45 -26 0 -6 7 -2 16 9 15 19
15 18 11 -3 -3 -13 -1 -23 4 -23 5 0 0 -14 -11 -32 -10 -17 -16 -36 -13 -41 3
-6 1 -7 -5 -3 -6 4 -16 -4 -23 -16 -7 -13 -18 -27 -24 -33 -16 -13 -26 -55
-13 -55 5 0 24 10 41 22 17 12 27 17 23 10 -12 -21 18 -24 85 -9 93 21 158 17
176 -9 12 -19 12 -24 -2 -37 -12 -13 -22 -14 -41 -7 -14 6 -29 8 -34 5 -4 -3
-41 -8 -82 -11 -40 -3 -101 -9 -135 -13 -35 -4 -68 -4 -75 1 -27 17 -46 8 -53
-24 -16 -72 -4 -278 16 -278 5 0 9 -5 9 -11 0 -5 -4 -7 -10 -4 -5 3 -10 1 -10
-5 0 -6 -4 -8 -10 -5 -5 3 -10 1 -10 -5 0 -6 7 -13 15 -16 8 -4 15 -10 15 -16
0 -5 -3 -7 -8 -4 -4 2 -6 -12 -6 -32 2 -27 10 -42 30 -59 23 -18 26 -24 15
-37 -17 -20 -67 -21 -75 -1 -7 19 -37 19 -62 0 -10 -8 -36 -15 -58 -15 -36 0
-38 -2 -33 -25 3 -17 0 -24 -7 -22 -6 3 -10 10 -8 17 4 18 -28 50 -50 50 -10
0 -18 -4 -18 -10 0 -12 60 -80 71 -80 21 0 90 -36 94 -50 5 -16 85 -104 85
-94 0 3 7 -1 15 -10 20 -20 19 -23 -10 -28 -13 -3 -22 -2 -20 2 3 5 -9 13 -27
19 -25 9 -36 8 -54 -4 -15 -9 -21 -21 -17 -30 3 -9 2 -15 -3 -14 -5 1 -11 0
-14 -1 -17 -7 -108 -6 -121 1 -23 12 -50 -18 -28 -31 7 -5 23 -7 35 -4 12 3
27 -1 35 -8 15 -15 114 -40 169 -43 30 -2 35 -6 38 -29 2 -18 0 -26 -7 -21 -6
3 -11 -2 -11 -12 0 -15 -2 -16 -10 -3 -8 12 -10 9 -10 -12 0 -25 -2 -26 -41
-22 -22 3 -51 9 -64 14 -32 12 -46 -5 -34 -40 8 -22 21 -31 67 -45 50 -16 93
-46 91 -64 0 -3 -8 -19 -18 -36 -14 -23 -25 -30 -49 -30 -17 -1 -34 -4 -38 -8
-8 -7 11 -32 24 -32 24 -2 52 -18 52 -31 0 -8 7 -14 16 -14 8 0 12 -4 9 -10
-3 -5 -2 -10 3 -10 5 0 8 -24 7 -52 -1 -29 2 -65 6 -80 7 -24 4 -29 -17 -34
-17 -4 -31 0 -44 11 -11 10 -20 15 -20 10 0 -4 -7 -2 -15 5 -11 9 -19 10 -26
3 -14 -14 -11 -15 118 -52 63 -18 155 -35 210 -40 54 -5 156 -19 226 -31 123
-22 130 -22 165 -6 31 15 34 15 23 2 -12 -14 -8 -16 30 -16 60 0 166 26 208
51 18 11 35 18 38 16 2 -3 -46 -49 -107 -103 -76 -69 -124 -104 -156 -114 -32
-11 -51 -26 -67 -50 -12 -19 -25 -37 -29 -38 -5 -2 -6 -8 -2 -13 3 -5 1 -9 -4
-9 -10 0 -35 -54 -35 -76 0 -8 -5 -14 -10 -14 -6 0 -8 -3 -4 -6 3 -3 -12 -42
-34 -87 -22 -45 -37 -87 -34 -94 2 -7 -1 -13 -8 -13 -8 0 -6 -4 3 -10 12 -8
12 -10 -5 -11 -11 0 -14 -3 -7 -6 6 -2 12 -9 12 -14 0 -6 -6 -7 -12 -3 -8 5
-7 0 2 -11 14 -17 13 -18 -4 -12 -16 6 -17 5 -6 -8 8 -10 9 -15 2 -15 -7 0 -9
-7 -5 -17 5 -12 3 -14 -8 -8 -11 7 -11 5 1 -10 14 -17 13 -18 -5 -11 -16 6
-18 5 -7 -5 6 -7 12 -17 12 -22 0 -4 -6 -5 -12 -1 -10 6 -10 5 -1 -7 7 -9 8
-20 3 -29 -5 -8 -6 -18 -4 -22 3 -4 -3 -5 -13 -1 -16 6 -17 5 -3 -12 9 -11 10
-16 3 -11 -9 5 -13 1 -13 -13 0 -10 6 -22 13 -24 6 -3 3 -6 -8 -6 -17 -1 -17
-3 -5 -11 12 -8 12 -10 1 -10 -11 0 -11 -3 -1 -15 11 -13 10 -14 -6 -8 -17 6
-18 5 -4 -12 9 -11 10 -16 3 -11 -7 4 -13 3 -13 -1 0 -5 6 -15 13 -22 7 -9 7
-11 1 -8 -17 10 -27 -23 -13 -39 10 -12 8 -13 -7 -7 -17 6 -17 5 -5 -10 10
-13 10 -17 1 -17 -9 0 -9 -4 1 -17 10 -11 10 -14 2 -9 -12 7 -18 -10 -14 -41
1 -7 -2 -13 -6 -13 -5 0 -10 -9 -11 -20 -1 -11 -3 -29 -4 -40 -1 -11 -6 -20
-10 -20 -4 0 -5 -7 -2 -15 4 -8 2 -15 -3 -15 -5 0 -9 -10 -10 -22 -1 -11 -6
-24 -10 -27 -8 -6 -13 -27 -16 -63 -1 -10 -4 -18 -7 -18 -5 0 -9 -20 -11 -62
0 -10 -5 -18 -10 -18 -6 0 -8 -4 -4 -10 3 -5 -1 -24 -8 -42 -8 -18 -12 -39
-10 -45 3 -7 1 -13 -5 -13 -5 0 -8 -13 -7 -30 1 -17 -2 -27 -8 -23 -6 4 -8 0
-4 -10 4 -10 2 -17 -5 -17 -7 0 -6 -5 2 -15 8 -10 9 -15 2 -15 -7 0 -9 -7 -5
-17 4 -11 3 -14 -5 -9 -8 5 -10 2 -6 -8 3 -9 2 -16 -3 -16 -5 0 -9 -8 -10 -17
-1 -23 -11 -66 -21 -95 -5 -13 -8 -35 -7 -50 0 -15 -3 -24 -8 -21 -5 3 -6 -4
-2 -17 6 -17 4 -21 -6 -14 -12 6 -12 5 0 -9 8 -11 9 -17 3 -17 -7 0 -9 -7 -5
-17 5 -12 3 -14 -7 -8 -9 5 -11 4 -6 -3 8 -14 1192 -18 1198 -4 4 9 77 56 100
65 12 4 15 12 11 23 -5 14 -16 16 -65 11 l-58 -5 22 31 c13 18 44 56 70 85 27
29 48 56 48 61 0 5 27 42 60 81 33 40 58 76 55 80 -3 4 34 43 82 87 78 69 304
277 358 329 49 46 49 48 22 126 -14 40 -35 105 -47 143 -23 70 -89 206 -116
236 -8 8 -14 19 -14 24 0 5 -7 15 -15 24 -18 20 -76 86 -92 105 -7 8 -13 18
-13 21 0 8 -45 51 -120 115 -94 81 -135 125 -155 168 -11 23 -23 42 -27 42 -4
0 -23 14 -43 31 -22 19 -41 29 -51 25 -11 -4 -15 -2 -11 8 3 8 -1 17 -10 20
-9 4 -13 13 -9 22 4 10 -8 43 -28 80 -19 34 -38 79 -42 98 -3 20 -10 38 -14
41 -4 3 -28 -4 -51 -15 -35 -15 -59 -18 -118 -15 l-75 5 33 -34 c33 -34 32
-50 -4 -35 -11 4 -16 8 -11 8 10 1 -85 81 -97 81 -4 0 -16 -13 -25 -30 -9 -16
-20 -30 -24 -30 -5 0 -8 -9 -8 -20 0 -11 -5 -20 -10 -20 -17 0 -70 -42 -64
-52 5 -7 -10 -12 -28 -9 -5 0 -8 -3 -8 -8 0 -5 -7 -11 -15 -15 -11 -4 -8 4 7
24 12 17 26 30 32 30 7 0 116 105 116 113 0 1 4 17 9 35 6 19 6 30 1 27 -22
-14 -95 183 -104 280 -3 28 -6 52 -7 55 -1 3 0 14 1 24 1 13 -3 17 -13 13 -12
-5 -11 4 5 41 12 26 25 50 30 53 5 3 6 14 2 24 -5 12 -4 16 3 12 8 -5 8 4 3
29 -5 20 -6 33 -2 30 3 -3 14 8 24 25 10 16 22 27 27 24 5 -3 12 -1 16 5 4 6
15 4 30 -6 51 -33 157 29 207 122 33 62 71 199 64 229 -8 33 -33 55 -62 55
-14 0 -24 6 -24 14 0 8 -5 16 -11 18 -10 3 -5 21 19 58 2 2 7 -2 11 -9 18 -29
61 251 61 396 0 161 -51 344 -110 398 -11 10 -20 23 -20 29 0 22 -166 180
-180 171 -4 -3 -10 2 -14 10 -5 13 -55 15 -363 15 -242 -1 -364 -4 -378 -12z
m645 -308 c0 -5 -2 -10 -4 -10 -3 0 -8 5 -11 10 -3 6 -1 10 4 10 6 0 11 -4 11
-10z m-281 -184 c-15 -13 -49 -25 -49 -17 0 5 8 12 18 14 24 6 36 8 31 3z
m-136 -101 c-3 -9 -8 -14 -10 -11 -3 3 -2 9 2 15 9 16 15 13 8 -4z m-11 -47
c-7 -7 -12 -8 -12 -2 0 14 12 26 19 19 2 -3 -1 -11 -7 -17z m178 -204 c0 -8
-5 -12 -11 -9 -6 4 -13 -2 -16 -14 -7 -27 -20 -19 -17 11 1 13 3 24 3 26 4 11
41 -1 41 -14z m-72 -65 c4 -24 -25 -31 -59 -14 -38 20 -28 37 19 33 24 -2 38
-9 40 -19z m-88 -89 c0 -28 -2 -29 -24 -19 -21 10 -23 14 -13 30 18 29 37 23
37 -11z m50 -5 c0 -8 -7 -15 -15 -15 -8 0 -15 7 -15 15 0 8 7 15 15 15 8 0 15
-7 15 -15z m61 -39 c-27 -12 -38 -1 -21 19 10 12 16 13 27 3 13 -11 12 -14 -6
-22z m-86 -17 c5 -5 19 -9 31 -9 13 0 26 -5 29 -10 4 -6 11 -7 17 -4 6 4 5 -3
-2 -16 -11 -21 -10 -22 24 -19 19 2 38 0 41 -3 4 -4 13 -4 20 -2 7 3 27 -2 44
-11 18 -9 36 -13 41 -10 6 3 10 -1 10 -9 0 -9 11 -18 25 -22 14 -3 25 -13 25
-21 0 -10 -7 -14 -18 -11 -12 3 -19 0 -19 -9 0 -8 6 -12 14 -9 7 3 13 1 13 -4
0 -6 -5 -10 -11 -10 -7 0 -19 -8 -28 -18 -9 -10 -42 -31 -73 -46 -32 -16 -56
-32 -53 -36 3 -4 -2 -10 -10 -14 -8 -3 -13 -11 -11 -18 1 -7 1 -10 -1 -5 -8
13 -25 7 -20 -7 4 -9 -3 -16 -16 -20 -12 -3 -22 -4 -22 -3 -3 12 -65 -69 -65
-83 0 -18 -5 -22 -26 -19 -9 1 -33 -35 -28 -42 2 -4 -3 -12 -10 -19 -12 -9
-17 -7 -26 9 -6 13 -21 21 -35 21 -14 0 -25 3 -25 8 0 4 -13 13 -29 20 -44 19
-32 39 86 142 9 7 10 18 3 36 -6 14 -8 29 -5 34 3 5 1 10 -5 12 -12 4 -22 66
-20 118 1 19 2 47 2 63 1 17 6 27 16 27 8 0 12 3 9 6 -3 4 -2 15 3 24 8 15 16
17 52 8 24 -5 47 -13 53 -19z m-362 -513 c6 -14 0 -26 -13 -26 -3 0 -6 9 -6
20 0 23 11 27 19 6z m107 -113 c0 -5 -4 -14 -9 -21 -6 -10 -10 -9 -14 7 -3 14
0 21 9 21 8 0 14 -3 14 -7z"/>
<path d="M4077 11619 c7 -7 15 -10 18 -7 3 3 -2 9 -12 12 -14 6 -15 5 -6 -5z"/>
<path d="M4166 11576 c3 -8 13 -12 25 -9 23 6 15 23 -11 23 -12 0 -17 -5 -14
-14z"/>
<path d="M3567 11958 c-3 -11 7 -25 29 -40 51 -35 41 -58 -25 -58 -33 0 -66
-32 -57 -56 3 -9 13 -14 20 -11 10 4 16 -2 18 -16 2 -12 12 -23 22 -25 18 -4
19 -3 3 13 -19 18 -20 25 -11 49 7 18 34 22 34 6 0 -6 6 -10 13 -9 28 3 37 -2
37 -22 0 -16 -5 -20 -19 -16 -13 3 -21 -1 -24 -14 -4 -15 0 -19 24 -19 16 0
45 -7 64 -14 35 -15 35 -15 34 12 0 15 -3 22 -5 16 -3 -7 -14 -10 -25 -7 -28
8 -20 39 9 35 12 -2 22 1 22 7 0 5 9 8 20 6 11 -2 20 1 20 6 0 6 7 17 15 25 8
9 15 25 15 38 0 26 -25 64 -35 54 -4 -4 -25 4 -46 18 -21 13 -47 24 -57 24
-10 0 -22 3 -26 8 -15 14 -65 7 -69 -10z"/>
<path d="M3828 11910 c-11 -32 -13 -46 -9 -81 1 -8 5 -8 16 1 19 16 29 74 16
97 -9 16 -11 14 -23 -17z"/>
<path d="M4891 11654 c0 -11 3 -14 6 -6 3 7 2 16 -1 19 -3 4 -6 -2 -5 -13z"/>
<path d="M3709 11197 c14 -18 71 -24 71 -7 0 6 -8 10 -17 10 -10 0 -29 3 -43
7 -22 6 -24 5 -11 -10z"/>
<path d="M3657 10744 c-3 -4 -23 -10 -44 -14 -175 -36 -242 -54 -284 -77 -27
-14 -49 -30 -49 -35 0 -5 6 -6 13 -3 6 4 1 -3 -13 -14 -14 -11 -29 -21 -34
-21 -5 0 -25 -12 -45 -27 -20 -16 -49 -30 -66 -33 -18 -3 -34 -14 -41 -28 -6
-13 -20 -31 -30 -41 -21 -20 -34 -36 -77 -93 -19 -26 -33 -36 -47 -33 -13 2
-20 -2 -20 -11 0 -8 -6 -14 -14 -14 -8 0 -22 -3 -32 -7 -13 -5 -15 -3 -10 8 4
8 -6 -2 -23 -20 -17 -19 -36 -51 -42 -70 -6 -20 -24 -71 -40 -113 -16 -43 -29
-88 -30 -100 -1 -22 -1 -22 -8 2 -6 21 -9 14 -20 -38 -7 -34 -10 -70 -7 -80 3
-9 1 -30 -4 -47 -10 -29 -10 -29 -6 7 3 21 1 40 -4 43 -11 7 -23 -74 -18 -119
2 -19 1 -33 -2 -31 -3 2 -6 -13 -6 -33 0 -20 -8 -86 -18 -147 -10 -60 -22
-141 -26 -180 -5 -38 -13 -92 -18 -120 -6 -27 -13 -81 -16 -118 -3 -38 -9 -74
-14 -80 -19 -25 -32 -135 -31 -261 1 -111 3 -123 10 -81 22 116 44 199 47 175
1 -14 -9 -79 -24 -145 -20 -87 -29 -155 -31 -248 l-4 -127 228 2 228 3 1 25
c1 14 5 97 8 185 4 88 9 182 12 209 4 27 7 194 8 370 l2 321 48 190 c26 104
56 206 65 225 10 19 49 96 87 170 38 74 91 183 118 241 38 84 60 118 108 167
33 34 65 62 70 62 5 0 14 5 21 11 23 19 182 109 194 109 7 0 13 2 13 4 0 11
-77 86 -83 80z m-730 -495 c-15 -13 -17 -17 -6 -21 11 -4 11 -9 -3 -25 -10
-11 -18 -27 -18 -35 0 -9 -7 -22 -16 -29 -15 -12 -16 -10 -10 21 4 19 19 60
33 89 22 45 28 52 34 35 5 -13 1 -24 -14 -35z m-63 16 c-4 -8 -10 -15 -15 -15
-4 0 -6 7 -3 15 4 8 10 15 15 15 4 0 6 -7 3 -15z m106 -95 c0 -5 -5 -10 -11
-10 -5 0 -7 5 -4 10 3 6 8 10 11 10 2 0 4 -4 4 -10z m-160 -90 c0 -5 -5 -10
-11 -10 -5 0 -7 5 -4 10 3 6 8 10 11 10 2 0 4 -4 4 -10z m60 -24 c0 -3 -4 -8
-10 -11 -5 -3 -10 -1 -10 4 0 6 5 11 10 11 6 0 10 -2 10 -4z m-75 -26 c-3 -5
-12 -10 -18 -10 -7 0 -6 4 3 10 19 12 23 12 15 0z m65 -24 c0 -3 -4 -8 -10
-11 -5 -3 -10 -1 -10 4 0 6 5 11 10 11 6 0 10 -2 10 -4z m-75 -24 c-3 -3 -11
0 -18 7 -9 10 -8 11 6 5 10 -3 15 -9 12 -12z m-35 -192 c0 -5 -2 -10 -4 -10
-3 0 -8 5 -11 10 -3 6 -1 10 4 10 6 0 11 -4 11 -10z m-43 -296 c-3 -3 -12 -4
-19 -1 -8 3 -5 6 6 6 11 1 17 -2 13 -5z m-12 -64 c3 -6 -1 -7 -9 -4 -18 7 -21
14 -7 14 6 0 13 -4 16 -10z m0 -28 c-3 -3 -11 0 -18 7 -9 10 -8 11 6 5 10 -3
15 -9 12 -12z m2 -18 c-3 -3 -12 -4 -19 -1 -8 3 -5 6 6 6 11 1 17 -2 13 -5z
m-10 -20 c-3 -3 -12 -4 -19 -1 -8 3 -5 6 6 6 11 1 17 -2 13 -5z m0 -20 c-3 -3
-12 -4 -19 -1 -8 3 -5 6 6 6 11 1 17 -2 13 -5z m8 -32 c-3 -3 -11 0 -18 7 -9
10 -8 11 6 5 10 -3 15 -9 12 -12z m-8 -18 c-3 -3 -12 -4 -19 -1 -8 3 -5 6 6 6
11 1 17 -2 13 -5z m0 -20 c-3 -3 -12 -4 -19 -1 -8 3 -5 6 6 6 11 1 17 -2 13
-5z m3 -74 c0 -5 -7 -7 -15 -4 -8 4 -15 8 -15 10 0 2 7 4 15 4 8 0 15 -4 15
-10z m-73 -32 c-3 -8 -6 -5 -6 6 -1 11 2 17 5 13 3 -3 4 -12 1 -19z m-10 -40
c-3 -8 -6 -5 -6 6 -1 11 2 17 5 13 3 -3 4 -12 1 -19z m13 -135 c0 -5 -5 -15
-10 -23 -8 -12 -10 -11 -10 8 0 12 5 22 10 22 6 0 10 -3 10 -7z m-23 -65 c-3
-8 -6 -5 -6 6 -1 11 2 17 5 13 3 -3 4 -12 1 -19z"/>
<path d="M3716 10610 c-26 -29 -36 -49 -36 -73 l0 -32 25 43 c14 24 34 57 46
73 30 43 7 35 -35 -11z"/>
<path d="M3736 10536 c-8 -41 -6 -49 10 -38 5 4 7 23 4 42 l-6 35 -8 -39z"/>
</g>
</svg>
